<svg width="56" height="56" viewBox="0 0 56 56" fill="none" xmlns="http://www.w3.org/2000/svg">
<rect width="56" height="56" rx="8" fill="white" fill-opacity="0.32"/>
<path d="M41.3333 44.6666H38V41.3333C38 40.0072 37.4732 38.7354 36.5355 37.7978C35.5978 36.8601 34.326 36.3333 33 36.3333H23C21.6739 36.3333 20.4021 36.8601 19.4644 37.7978C18.5267 38.7354 18 40.0072 18 41.3333V44.6666H14.6666V41.3333C14.6666 39.1232 15.5446 37.0035 17.1074 35.4407C18.6702 33.8779 20.7898 33 23 33H33C35.2101 33 37.3297 33.8779 38.8925 35.4407C40.4553 37.0035 41.3333 39.1232 41.3333 41.3333V44.6666ZM28 29.6666C26.6867 29.6666 25.3864 29.408 24.1731 28.9054C22.9599 28.4029 21.8575 27.6663 20.9289 26.7377C20.0003 25.8091 19.2637 24.7067 18.7612 23.4935C18.2586 22.2802 18 20.9798 18 19.6666C18 18.3534 18.2586 17.053 18.7612 15.8398C19.2637 14.6265 20.0003 13.5241 20.9289 12.5956C21.8575 11.667 22.9599 10.9304 24.1731 10.4278C25.3864 9.92528 26.6867 9.66663 28 9.66663C30.6521 9.66663 33.1957 10.7202 35.071 12.5956C36.9464 14.4709 38 17.0145 38 19.6666C38 22.3188 36.9464 24.8623 35.071 26.7377C33.1957 28.6131 30.6521 29.6666 28 29.6666ZM28 26.3333C29.7681 26.3333 31.4638 25.6309 32.714 24.3807C33.9642 23.1304 34.6666 21.4347 34.6666 19.6666C34.6666 17.8985 33.9642 16.2028 32.714 14.9526C31.4638 13.7023 29.7681 13 28 13C26.2318 13 24.5362 13.7023 23.2859 14.9526C22.0357 16.2028 21.3333 17.8985 21.3333 19.6666C21.3333 21.4347 22.0357 23.1304 23.2859 24.3807C24.5362 25.6309 26.2318 26.3333 28 26.3333Z" fill="#3D7DFF"/>
</svg>
