<svg width="24" height="24" viewBox="0 0 24 24" fill="none" xmlns="http://www.w3.org/2000/svg">
<path d="M2 10.667H22V22.667H2V10.667Z" fill="#66757F"/>
<path d="M1.33333 22.667H22.6667C23.4027 22.667 24 23.2643 24 24.0003H0C0 23.2643 0.597333 22.667 1.33333 22.667Z" fill="#CCD6DD"/>
<path d="M12 15.333C10.8953 15.333 10 16.2283 10 17.333V21.333H14V17.333C14 16.2283 13.1047 15.333 12 15.333Z" fill="#292F33"/>
<path d="M2 14H4.66667V21.3333H2V14ZM6 14H8.66667V21.3333H6V14ZM19.3333 14H22V21.3333H19.3333V14ZM15.3333 14H18V21.3333H15.3333V14Z" fill="#CCD6DD"/>
<path d="M1.3335 21.333H22.6668V22.6663H1.3335V21.333Z" fill="#AAB8C2"/>
<path d="M24 7.33333L12 0L0 7.33333H24Z" fill="#66757F"/>
<path d="M12.0002 1.60059L1.3335 8.00059V10.6673H22.6668V8.00059L12.0002 1.60059Z" fill="#CCD6DD"/>
<path d="M2 12.667H4.66667V14.0003H2V12.667ZM6 12.667H8.66667V14.0003H6V12.667ZM15.3333 12.667H18V14.0003H15.3333V12.667ZM19.3333 12.667H22V14.0003H19.3333V12.667Z" fill="#8899A6"/>
<path d="M0.666687 8H23.3334V11.3333H0.666687V8Z" fill="#CCD6DD"/>
<path d="M24 8.00033C24 8.36833 23.702 8.66699 23.3333 8.66699H0.666667C0.298667 8.66699 0 8.36833 0 8.00033V7.33366C0 6.96566 0.298667 6.66699 0.666667 6.66699H23.3333C23.702 6.66699 24 6.96566 24 7.33366V8.00033ZM24 12.0003C24 12.3683 23.702 12.667 23.3333 12.667H0.666667C0.298667 12.667 0 12.3683 0 12.0003V11.3337C0 10.9657 0.298667 10.667 0.666667 10.667H23.3333C23.702 10.667 24 10.9657 24 11.3337V12.0003Z" fill="#AAB8C2"/>
<path d="M8.6665 21.333H15.3332V22.6663H8.6665V21.333Z" fill="#E1E8ED"/>
<path d="M7.3335 22.667H16.6668V24.0003H7.3335V22.667Z" fill="#F5F8FA"/>
</svg>
