<svg width="18" height="24" viewBox="0 0 18 24" fill="none" xmlns="http://www.w3.org/2000/svg">
<path d="M9.08719 17.7888C9.24051 17.85 9.36271 17.6819 9.41872 17.5858C9.57656 17.3136 9.65746 16.706 9.42098 16.089C9.18167 15.4659 9.02383 14.6963 8.46486 13.5207C8.3998 13.3836 8.18538 11.675 7.7622 10.5942C7.64792 10.3018 6.91641 10.1344 6.62561 10.2386C6.33538 10.3421 6.62844 10.8973 6.64654 11.0008C6.84116 12.1105 7.38485 13.7411 7.46688 13.9609C7.91948 15.1748 8.57858 15.5667 8.63855 16.4519C8.66967 16.9157 8.75453 17.3163 8.978 17.2773C9.03005 17.5139 9.03061 17.7666 9.08719 17.7888ZM0.701078 17.9259C0.55568 18.0106 0.41594 17.8628 0.350313 17.7767C0.163616 17.5314 0.0159549 16.9419 0.182851 16.2926C0.350879 15.6373 0.422729 14.8502 0.847041 13.5973C0.896262 13.4514 0.920023 11.724 1.22044 10.5868C1.30134 10.2796 2.00796 9.99863 2.30781 10.0564C2.60709 10.1142 2.37796 10.7098 2.37117 10.8153C2.30102 11.9458 1.94233 13.647 1.88519 13.8776C1.57064 15.1513 0.960757 15.6433 0.999228 16.5299C1.0196 16.995 0.979993 17.405 0.754259 17.401C0.727103 17.645 0.754259 17.895 0.701078 17.9259Z" fill="#AF7E57"/>
<path d="M2.48713 19.6299C2.20425 17.7923 2.33833 15.2744 2.33833 15.2744H6.66293C6.66293 15.2744 6.79758 17.7923 6.5147 19.6299C6.47906 19.8611 6.40834 21.8776 6.57637 23.3267C6.61371 23.6487 4.94361 23.9565 4.96737 23.2427C5.0115 21.9193 4.81802 20.8815 4.78181 20.2181C4.76201 19.8504 4.64037 18.9578 4.58719 18.0618C4.58097 18.0497 4.42029 18.0497 4.41407 18.0618C4.36089 18.9578 4.23982 19.8504 4.21945 20.2181C4.18325 20.8815 3.98976 21.9193 4.03389 23.2427C4.05765 23.9565 2.38755 23.6487 2.42489 23.3267C2.59292 21.8776 2.5222 19.8611 2.48713 19.6299Z" fill="#5C913B"/>
<path d="M1.92991 23.9993C1.6476 23.7264 1.95311 23.219 2.73328 23.057C3.39124 22.9205 3.97793 23.0355 4.07014 23.2922C4.19008 23.6236 4.09843 23.9993 4.09843 23.9993H1.92991ZM7.08785 23.9993C7.37016 23.7264 7.06466 23.219 6.28449 23.057C5.62652 22.9205 5.03984 23.0355 4.94762 23.2922C4.82768 23.6236 4.91933 23.9993 4.91933 23.9993H7.08785Z" fill="#292F33"/>
<path d="M1.78448 9.72678C2.47413 9.21191 3.36688 9.21191 3.36688 9.21191H5.62988C5.62988 9.21191 6.52263 9.21191 7.21228 9.72678C7.89175 10.2336 8.14916 11.7432 8.14916 11.7432L6.80664 12.2057L6.74724 15.9206H2.24952L2.19012 12.2057L0.847595 11.7432C0.847595 11.7432 1.10501 10.2336 1.78448 9.72678Z" fill="#99AAB5"/>
<path d="M5.72833 0.131376C5.10431 -0.10858 3.63619 -0.0433822 3.26902 0.52391C2.3146 0.545419 1.19498 1.57044 1.04788 2.9228C0.902487 4.26105 1.22666 4.88211 1.34151 5.88832C1.4722 7.02828 2.01136 7.39326 2.44302 7.54583C3.06365 8.51977 3.72332 8.4781 4.83049 8.4781C6.99335 8.4781 8.02358 6.75875 8.11467 3.83894C8.16954 2.07187 7.29716 0.734292 5.72833 0.131376Z" fill="#60352A"/>
<path d="M3.59491 7.59863V9.25077C3.59491 9.85906 3.98415 11.079 4.52161 11.079C5.05907 11.079 5.44831 9.85906 5.44831 9.25077V7.59863H3.59491Z" fill="#AF7E57"/>
<path d="M3.59491 9.02089C3.87665 9.39931 4.14086 9.49408 4.52104 9.49408C4.90066 9.49408 5.16713 9.39864 5.44887 9.02089V8.57324H3.59491V9.02089Z" fill="#9B6A49"/>
<path d="M6.96509 3.96294C6.75576 3.6188 6.48816 3.3412 5.90035 3.24307C6.12042 3.36271 6.33145 3.77742 6.35917 4.00595C6.38689 4.23516 6.41405 4.42 6.2398 4.19147C5.54109 3.27398 4.78073 3.6356 4.02658 3.07503C3.50043 2.68384 3.34033 2.25098 3.34033 2.25098C3.34033 2.25098 3.27583 2.82902 2.47756 3.41782C2.24617 3.58855 1.97008 3.96831 1.81676 4.53023C1.70644 4.93352 1.74095 5.29379 1.74095 5.90813C1.74095 7.70276 2.98617 9.21173 4.52161 9.21173C6.05706 9.21173 7.30227 7.68932 7.30227 5.90813C7.30227 4.79169 7.20383 4.35547 6.96509 3.96294Z" fill="#AF7E57"/>
<path d="M5.60559 7.86816H3.34259C3.34259 7.86816 3.34259 8.54031 4.47409 8.54031C5.60559 8.54031 5.60559 7.86816 5.60559 7.86816Z" fill="#915A34"/>
<path d="M3.05967 5.85183C3.2159 5.85183 3.34254 5.70137 3.34254 5.51576C3.34254 5.33015 3.2159 5.17969 3.05967 5.17969C2.90344 5.17969 2.77679 5.33015 2.77679 5.51576C2.77679 5.70137 2.90344 5.85183 3.05967 5.85183Z" fill="#662113"/>
<path d="M5.88847 5.85183C6.04469 5.85183 6.17134 5.70137 6.17134 5.51576C6.17134 5.33015 6.04469 5.17969 5.88847 5.17969C5.73224 5.17969 5.60559 5.33015 5.60559 5.51576C5.60559 5.70137 5.73224 5.85183 5.88847 5.85183Z" fill="#662113"/>
<path d="M3.90833 6.52344H5.03982C5.03982 6.52344 5.03982 7.19558 4.47408 7.19558C3.90833 7.19558 3.90833 6.52344 3.90833 6.52344Z" fill="#915A34"/>
<path d="M9.04196 17.7888C8.88864 17.85 8.76644 17.6819 8.71043 17.5858C8.55259 17.3136 8.47168 16.706 8.70817 16.089C8.94748 15.4659 9.10532 14.6963 9.66428 13.5207C9.72935 13.3836 9.94376 11.675 10.3669 10.5942C10.4812 10.3018 11.2127 10.1344 11.5035 10.2386C11.7938 10.3421 11.5007 10.8973 11.4826 11.0008C11.288 12.1105 10.7443 13.7411 10.6623 13.9609C10.2097 15.1748 9.55057 15.5667 9.4906 16.4519C9.45948 16.9157 9.37462 17.3163 9.15115 17.2773C9.09853 17.5139 9.09797 17.7666 9.04196 17.7888ZM17.2991 17.9259C17.4445 18.0106 17.5842 17.8628 17.6498 17.7767C17.8365 17.5314 17.9842 16.9419 17.8173 16.2926C17.6493 15.6373 17.5774 14.8502 17.1531 13.5973C17.1039 13.4514 17.0801 11.724 16.7797 10.5868C16.6988 10.2796 15.9922 9.99863 15.6923 10.0564C15.3931 10.1142 15.6222 10.7098 15.629 10.8153C15.6991 11.9458 16.0578 13.647 16.115 13.8776C16.4295 15.1513 17.0394 15.6433 17.0009 16.5299C16.9806 16.995 17.0202 17.405 17.2459 17.401C17.2731 17.645 17.2459 17.895 17.2991 17.9259Z" fill="#AF7E57"/>
<path d="M15.513 19.6299C15.7959 17.7923 15.6618 15.2744 15.6618 15.2744H11.3372C11.3372 15.2744 11.2026 17.7923 11.4854 19.6299C11.5211 19.8611 11.5918 21.8776 11.4238 23.3267C11.3864 23.6487 13.0565 23.9565 13.0328 23.2427C12.9886 21.9193 13.1821 20.8815 13.2183 20.2181C13.2381 19.8504 13.3598 18.9578 13.4129 18.0618C13.4192 18.0497 13.5798 18.0497 13.5861 18.0618C13.6392 18.9578 13.7603 19.8504 13.7807 20.2181C13.8169 20.8815 14.0104 21.9193 13.9662 23.2427C13.9425 23.9565 15.6126 23.6487 15.5752 23.3267C15.4072 21.8776 15.4779 19.8611 15.513 19.6299Z" fill="#4289C1"/>
<path d="M16.0702 23.9993C16.3525 23.7264 16.047 23.219 15.2668 23.057C14.6089 22.9205 14.0222 23.0355 13.93 23.2922C13.81 23.6236 13.9017 23.9993 13.9017 23.9993H16.0702ZM10.9123 23.9993C10.63 23.7264 10.9355 23.219 11.7156 23.057C12.3736 22.9205 12.9603 23.0355 13.0525 23.2922C13.1724 23.6243 13.0808 24 13.0808 24L10.9123 23.9993Z" fill="#292F33"/>
<path d="M16.2156 9.72678C15.526 9.21191 14.6332 9.21191 14.6332 9.21191H12.3702C12.3702 9.21191 11.4775 9.21191 10.7878 9.72678C10.1084 10.2336 9.85095 11.7432 9.85095 11.7432L11.1935 12.2057L11.2529 15.9206H15.7506L15.81 12.2057L17.1525 11.7432C17.1525 11.7432 16.8951 10.2336 16.2156 9.72678Z" fill="#FA743E"/>
<path d="M14.6661 0.131376C14.0421 -0.10858 12.5734 -0.0433822 12.2068 0.52391C11.2523 0.545419 10.1327 1.57044 9.98563 2.9228C9.84023 4.26105 10.1644 4.88211 10.2793 5.88832C10.4099 7.02828 10.9491 7.39326 11.3808 7.54583C12.0014 8.51977 12.6611 8.4781 13.7682 8.4781C15.9311 8.4781 16.9613 6.75875 17.0524 3.83894C17.1073 2.07187 16.2349 0.734292 14.6661 0.131376Z" fill="#60352A"/>
<path d="M12.5298 7.59863V9.25077C12.5298 9.85906 12.919 11.079 13.4565 11.079C13.9939 11.079 14.3832 9.85906 14.3832 9.25077V7.59863H12.5298Z" fill="#AF7E57"/>
<path d="M12.5303 9.02089C12.8121 9.39931 13.0763 9.49408 13.4565 9.49408C13.8361 9.49408 14.1026 9.39864 14.3843 9.02089V8.57324H12.5303V9.02089Z" fill="#9B6A49"/>
<path d="M15.9028 3.96294C15.6935 3.6188 15.4253 3.3412 14.838 3.24307C15.0581 3.36271 15.2691 3.77742 15.2969 4.00595C15.3246 4.23516 15.3517 4.42 15.1775 4.19147C14.4788 3.27398 13.7184 3.6356 12.9643 3.07503C12.4376 2.68384 12.2775 2.25098 12.2775 2.25098C12.2775 2.25098 12.213 2.82902 11.4147 3.41782C11.1833 3.58855 10.9072 3.96831 10.7539 4.53023C10.6436 4.93352 10.6781 5.29379 10.6781 5.90813C10.6781 7.70276 11.9233 9.21173 13.4587 9.21173C14.9942 9.21173 16.2394 7.68932 16.2394 5.90813C16.24 4.79169 16.1415 4.35547 15.9028 3.96294Z" fill="#AF7E57"/>
<path d="M14.6576 7.86816H12.3946C12.3946 7.86816 12.3946 8.54031 13.5261 8.54031C14.6576 8.54031 14.6576 7.86816 14.6576 7.86816Z" fill="#915A34"/>
<path d="M12.1117 5.85183C12.2679 5.85183 12.3945 5.70137 12.3945 5.51576C12.3945 5.33015 12.2679 5.17969 12.1117 5.17969C11.9554 5.17969 11.8288 5.33015 11.8288 5.51576C11.8288 5.70137 11.9554 5.85183 12.1117 5.85183Z" fill="#662113"/>
<path d="M14.9405 5.85183C15.0967 5.85183 15.2233 5.70137 15.2233 5.51576C15.2233 5.33015 15.0967 5.17969 14.9405 5.17969C14.7842 5.17969 14.6576 5.33015 14.6576 5.51576C14.6576 5.70137 14.7842 5.85183 14.9405 5.85183Z" fill="#662113"/>
<path d="M12.9603 6.52344H14.0918C14.0918 6.52344 14.0918 7.19558 13.5261 7.19558C12.9603 7.19558 12.9603 6.52344 12.9603 6.52344Z" fill="#915A34"/>
</svg>
