<svg width="56" height="56" viewBox="0 0 56 56" fill="none" xmlns="http://www.w3.org/2000/svg">
<rect width="56" height="56" rx="8" fill="white" fill-opacity="0.32"/>
<path d="M28 44.6667C18.795 44.6667 11.3333 37.205 11.3333 28C11.3333 18.795 18.795 11.3334 28 11.3334C37.205 11.3334 44.6667 18.795 44.6667 28C44.6667 37.205 37.205 44.6667 28 44.6667ZM28 41.3334C31.5362 41.3334 34.9276 39.9286 37.4281 37.4281C39.9286 34.9276 41.3333 31.5363 41.3333 28C41.3333 24.4638 39.9286 21.0724 37.4281 18.572C34.9276 16.0715 31.5362 14.6667 28 14.6667C24.4638 14.6667 21.0724 16.0715 18.5719 18.572C16.0714 21.0724 14.6667 24.4638 14.6667 28C14.6667 31.5363 16.0714 34.9276 18.5719 37.4281C21.0724 39.9286 24.4638 41.3334 28 41.3334ZM26.3333 33H29.6667V36.3334H26.3333V33ZM26.3333 19.6667H29.6667V29.6667H26.3333V19.6667Z" fill="#E4746C"/>
</svg>
