<svg width="24" height="24" viewBox="0 0 24 24" fill="none" xmlns="http://www.w3.org/2000/svg">
<path d="M17.882 19.297C16.1232 20.4125 14.0827 21.0033 12 21C6.60797 21 2.12197 17.12 1.18097 12C1.611 9.67069 2.7826 7.54287 4.52097 5.93397L1.39197 2.80797L2.80697 1.39297L22.606 21.193L21.191 22.607L17.881 19.297H17.882ZM5.93497 7.34997C4.57597 8.58556 3.62929 10.2088 3.22297 12C3.53526 13.3664 4.16223 14.6411 5.05397 15.7226C5.94571 16.804 7.0776 17.6624 8.35952 18.2293C9.64145 18.7962 11.038 19.056 12.4381 18.9881C13.8381 18.9202 15.203 18.5263 16.424 17.838L14.396 15.81C13.5327 16.3538 12.5102 16.5881 11.4962 16.4744C10.4822 16.3607 9.53701 15.9059 8.81554 15.1844C8.09407 14.4629 7.6392 13.5177 7.52553 12.5037C7.41187 11.4898 7.64615 10.4673 8.18997 9.60398L5.93497 7.34997ZM12.914 14.328L9.67197 11.086C9.49403 11.5389 9.45216 12.0339 9.55147 12.5103C9.65079 12.9867 9.88699 13.4238 10.2311 13.7679C10.5752 14.112 11.0122 14.3482 11.4886 14.4475C11.965 14.5468 12.46 14.5049 12.913 14.327L12.914 14.328ZM20.807 16.592L19.376 15.162C20.0444 14.2093 20.5204 13.1352 20.777 12C20.5052 10.8097 19.9942 9.68712 19.2751 8.70047C18.556 7.71382 17.6438 6.8837 16.5938 6.26058C15.5439 5.63746 14.3783 5.23434 13.1677 5.07574C11.9571 4.91713 10.727 5.00635 9.55197 5.33797L7.97397 3.75997C9.22097 3.26997 10.58 2.99997 12 2.99997C17.392 2.99997 21.878 6.87998 22.819 12C22.5126 13.6657 21.8238 15.2376 20.807 16.592ZM11.723 7.50797C12.3595 7.46864 12.9971 7.56504 13.5935 7.79079C14.1899 8.01654 14.7316 8.36649 15.1825 8.81743C15.6335 9.26836 15.9834 9.81 16.2092 10.4064C16.4349 11.0029 16.5313 11.6405 16.492 12.277L11.722 7.50797H11.723Z" fill="#040921" fill-opacity="0.32"/>
</svg>
