<svg width="18" height="24" viewBox="0 0 18 24" fill="none" xmlns="http://www.w3.org/2000/svg">
<path d="M15.1546 17.8457H2.84548C1.33487 17.8457 0.110107 19.0705 0.110107 20.5811V24.0003H17.89V20.5811C17.89 19.0705 16.6653 17.8457 15.1546 17.8457Z" fill="#FA743E"/>
<path d="M2.84546 21.2646H3.5293V24H2.84546V21.2646ZM14.4708 21.2646H15.1546V24H14.4708V21.2646Z" fill="#DD551F"/>
<path d="M11.6712 0.24467C10.2898 -0.202563 7.04018 -0.0801551 6.22778 0.975698C4.11539 1.01604 1.63714 2.92533 1.31231 5.44461C0.990908 7.93722 1.70758 9.09496 1.96265 10.9694C2.25123 13.0934 3.44522 13.7724 4.39986 14.0569C5.77302 15.8718 7.23234 15.7939 9.68392 15.7939C14.4708 15.7939 16.7507 12.5908 16.9525 7.1508C17.0742 3.86015 15.1437 1.36822 11.6712 0.24467Z" fill="#60352A"/>
<path d="M6.94855 14.4258V18.5288C6.94855 19.662 7.86695 20.5804 9.00008 20.5804C10.1332 20.5804 11.0516 19.662 11.0516 18.5288V14.4258H6.94855Z" fill="#AF7E57"/>
<path d="M14.4085 7.38309C13.9456 6.74165 13.352 6.22535 12.052 6.04276C12.5396 6.26638 13.0067 7.03775 13.0675 7.46447C13.1284 7.89119 13.1893 8.23653 12.8036 7.80981C11.2581 6.10089 9.57446 6.77379 7.90589 5.73025C6.74062 5.00127 6.3857 4.19434 6.3857 4.19434C6.3857 4.19434 6.24346 5.2707 4.47641 6.36759C3.96422 6.68557 3.35286 7.39335 3.01367 8.43963C2.76954 9.19118 2.84545 9.86134 2.84545 11.0068C2.84545 14.3501 5.60065 17.1614 9.00003 17.1614C12.3994 17.1614 15.1546 14.3255 15.1546 11.0068C15.1546 8.92721 14.9365 8.11481 14.4085 7.38309Z" fill="#AF7E57"/>
<path d="M9.68391 13.4006H8.31623C8.12749 13.4006 7.9743 13.2475 7.9743 13.0587C7.9743 12.87 8.12749 12.7168 8.31623 12.7168H9.68391C9.87265 12.7168 10.0258 12.87 10.0258 13.0587C10.0258 13.2475 9.87265 13.4006 9.68391 13.4006Z" fill="#915A34"/>
<path d="M6.26471 11.0066C5.88723 11.0066 5.58087 10.7002 5.58087 10.3228V9.63892C5.58087 9.26144 5.88723 8.95508 6.26471 8.95508C6.6422 8.95508 6.94856 9.26144 6.94856 9.63892V10.3228C6.94856 10.7002 6.6422 11.0066 6.26471 11.0066ZM11.7355 11.0066C11.358 11.0066 11.0516 10.7002 11.0516 10.3228V9.63892C11.0516 9.26144 11.358 8.95508 11.7355 8.95508C12.1129 8.95508 12.4193 9.26144 12.4193 9.63892V10.3228C12.4193 10.7002 12.1129 11.0066 11.7355 11.0066Z" fill="#662113"/>
<path d="M6.94855 15.7935C6.94855 15.7935 7.63307 14.4258 9.00008 14.4258C10.3671 14.4258 11.0516 15.7935 11.0516 15.7935H6.94855Z" fill="#915A34"/>
</svg>
