<svg width="56" height="56" viewBox="0 0 56 56" fill="none" xmlns="http://www.w3.org/2000/svg">
<rect width="56" height="56" rx="8" fill="white" fill-opacity="0.32"/>
<path d="M28 11.3334C28.442 11.3334 28.8659 11.509 29.1785 11.8215C29.4911 12.1341 29.6666 12.558 29.6666 13V18C29.6666 18.4421 29.4911 18.866 29.1785 19.1786C28.8659 19.4911 28.442 19.6667 28 19.6667C27.558 19.6667 27.134 19.4911 26.8215 19.1786C26.5089 18.866 26.3333 18.4421 26.3333 18V13C26.3333 12.558 26.5089 12.1341 26.8215 11.8215C27.134 11.509 27.558 11.3334 28 11.3334ZM28 36.3334C28.442 36.3334 28.8659 36.509 29.1785 36.8215C29.4911 37.1341 29.6666 37.558 29.6666 38V43C29.6666 43.4421 29.4911 43.866 29.1785 44.1786C28.8659 44.4911 28.442 44.6667 28 44.6667C27.558 44.6667 27.134 44.4911 26.8215 44.1786C26.5089 43.866 26.3333 43.4421 26.3333 43V38C26.3333 37.558 26.5089 37.1341 26.8215 36.8215C27.134 36.509 27.558 36.3334 28 36.3334ZM44.6666 28C44.6666 28.4421 44.4911 28.866 44.1785 29.1786C43.8659 29.4911 43.442 29.6667 43 29.6667H38C37.558 29.6667 37.134 29.4911 36.8215 29.1786C36.5089 28.866 36.3333 28.4421 36.3333 28C36.3333 27.558 36.5089 27.1341 36.8215 26.8215C37.134 26.509 37.558 26.3334 38 26.3334H43C43.442 26.3334 43.8659 26.509 44.1785 26.8215C44.4911 27.1341 44.6666 27.558 44.6666 28ZM19.6666 28C19.6666 28.4421 19.4911 28.866 19.1785 29.1786C18.8659 29.4911 18.442 29.6667 18 29.6667H13C12.558 29.6667 12.134 29.4911 11.8215 29.1786C11.5089 28.866 11.3333 28.4421 11.3333 28C11.3333 27.558 11.5089 27.1341 11.8215 26.8215C12.134 26.509 12.558 26.3334 13 26.3334H18C18.442 26.3334 18.8659 26.509 19.1785 26.8215C19.4911 27.1341 19.6666 27.558 19.6666 28ZM39.785 39.785C39.4724 40.0975 39.0486 40.273 38.6066 40.273C38.1647 40.273 37.7409 40.0975 37.4283 39.785L33.8933 36.25C33.5897 35.9357 33.4217 35.5147 33.4255 35.0777C33.4293 34.6407 33.6046 34.2227 33.9136 33.9137C34.2226 33.6047 34.6407 33.4294 35.0776 33.4256C35.5146 33.4218 35.9356 33.5898 36.25 33.8934L39.785 37.4267C39.9399 37.5815 40.0629 37.7653 40.1467 37.9676C40.2306 38.17 40.2738 38.3869 40.2738 38.6059C40.2738 38.8249 40.2306 39.0418 40.1467 39.2441C40.0629 39.4464 39.9399 39.6303 39.785 39.785ZM22.1066 22.1067C21.7941 22.4192 21.3703 22.5947 20.9283 22.5947C20.4864 22.5947 20.0625 22.4192 19.75 22.1067L16.2166 18.5734C15.9039 18.2609 15.7281 17.8369 15.728 17.3948C15.7278 16.9527 15.9033 16.5286 16.2158 16.2159C16.5283 15.9031 16.9523 15.7274 17.3944 15.7272C17.8365 15.727 18.2606 15.9025 18.5733 16.215L22.1066 19.75C22.4191 20.0626 22.5946 20.4864 22.5946 20.9284C22.5946 21.3703 22.4191 21.7942 22.1066 22.1067ZM16.2166 39.785C15.9042 39.4725 15.7287 39.0486 15.7287 38.6067C15.7287 38.1648 15.9042 37.7409 16.2166 37.4284L19.7516 33.8934C19.9054 33.7342 20.0893 33.6072 20.2926 33.5199C20.496 33.4325 20.7147 33.3865 20.936 33.3846C21.1573 33.3827 21.3767 33.4249 21.5816 33.5087C21.7864 33.5925 21.9725 33.7162 22.129 33.8727C22.2855 34.0292 22.4092 34.2153 22.493 34.4201C22.5768 34.6249 22.619 34.8444 22.6171 35.0657C22.6151 35.287 22.5692 35.5057 22.4818 35.709C22.3945 35.9124 22.2675 36.0963 22.1083 36.25L18.575 39.785C18.4202 39.94 18.2364 40.0629 18.034 40.1468C17.8317 40.2307 17.6148 40.2739 17.3958 40.2739C17.1768 40.2739 16.9599 40.2307 16.7576 40.1468C16.5552 40.0629 16.3714 39.94 16.2166 39.785ZM33.8933 22.1067C33.5809 21.7942 33.4053 21.3703 33.4053 20.9284C33.4053 20.4864 33.5809 20.0626 33.8933 19.75L37.4266 16.215C37.7392 15.9023 38.1631 15.7265 38.6052 15.7264C39.0473 15.7262 39.4714 15.9017 39.7841 16.2142C40.0969 16.5267 40.2727 16.9507 40.2728 17.3928C40.273 17.8349 40.0975 18.259 39.785 18.5717L36.25 22.1067C35.9374 22.4192 35.5136 22.5947 35.0716 22.5947C34.6297 22.5947 34.2059 22.4192 33.8933 22.1067Z" fill="#FFBF4D"/>
</svg>
